<svg width="16" height="16" viewBox="0 0 16 16" xmlns="http://www.w3.org/2000/svg">
<path d="M14.2654 3.94187L13.9741 3.77375C14.0083 3.59285 14.0083 3.40715 13.9741 3.22625L14.2654 3.05813C14.3803 2.99182 14.4641 2.8826 14.4984 2.75449C14.5328 2.62638 14.5148 2.48987 14.4485 2.375C14.3822 2.26013 14.273 2.1763 14.1449 2.14196C14.0168 2.10762 13.8803 2.12557 13.7654 2.19187L13.4735 2.36063C13.3338 2.24079 13.1732 2.14777 12.9998 2.08625V1.75C12.9998 1.61739 12.9471 1.49021 12.8533 1.39645C12.7596 1.30268 12.6324 1.25 12.4998 1.25C12.3672 1.25 12.24 1.30268 12.1462 1.39645C12.0525 1.49021 11.9998 1.61739 11.9998 1.75V2.08625C11.8263 2.14777 11.6657 2.24079 11.526 2.36063L11.2341 2.19187C11.1773 2.15904 11.1145 2.13774 11.0494 2.12917C10.9843 2.12061 10.9181 2.12495 10.8547 2.14196C10.7912 2.15896 10.7318 2.18829 10.6797 2.22828C10.6276 2.26827 10.5839 2.31812 10.551 2.375C10.5182 2.43188 10.4969 2.49467 10.4883 2.55978C10.4798 2.62489 10.4841 2.69105 10.5011 2.75449C10.5181 2.81792 10.5474 2.87739 10.5874 2.92948C10.6274 2.98158 10.6773 3.02529 10.7341 3.05813L11.0254 3.22625C10.9912 3.40715 10.9912 3.59285 11.0254 3.77375L10.7341 3.94187C10.6388 3.99688 10.5642 4.08184 10.5221 4.18355C10.4799 4.28526 10.4725 4.39804 10.501 4.5044C10.5295 4.61075 10.5923 4.70472 10.6796 4.77173C10.767 4.83874 10.874 4.87504 10.9841 4.875C11.0719 4.87527 11.1582 4.85219 11.2341 4.80813L11.526 4.63938C11.6657 4.75921 11.8263 4.85223 11.9998 4.91375V5.25C11.9998 5.38261 12.0525 5.50979 12.1462 5.60355C12.24 5.69732 12.3672 5.75 12.4998 5.75C12.6324 5.75 12.7596 5.69732 12.8533 5.60355C12.9471 5.50979 12.9998 5.38261 12.9998 5.25V4.91375C13.1732 4.85223 13.3338 4.75921 13.4735 4.63938L13.7654 4.80813C13.8413 4.85219 13.9276 4.87527 14.0154 4.875C14.1255 4.87504 14.2325 4.83874 14.3199 4.77173C14.4073 4.70472 14.4701 4.61075 14.4986 4.5044C14.5271 4.39804 14.5196 4.28526 14.4775 4.18355C14.4353 4.08184 14.3608 3.99688 14.2654 3.94187ZM11.9998 3.5C11.9998 3.40111 12.0291 3.30444 12.084 3.22221C12.139 3.13999 12.2171 3.0759 12.3084 3.03806C12.3998 3.00022 12.5003 2.99031 12.5973 3.00961C12.6943 3.0289 12.7834 3.07652 12.8533 3.14645C12.9233 3.21637 12.9709 3.30546 12.9902 3.40245C13.0095 3.49945 12.9996 3.59998 12.9617 3.69134C12.9239 3.7827 12.8598 3.86079 12.7776 3.91573C12.6953 3.97068 12.5987 4 12.4998 4C12.3672 4 12.24 3.94732 12.1462 3.85355C12.0525 3.75979 11.9998 3.63261 11.9998 3.5ZM13.8341 6.50688C13.7034 6.52876 13.5866 6.6017 13.5096 6.70965C13.4326 6.8176 13.4016 6.95172 13.4235 7.0825C13.4743 7.3857 13.4998 7.69258 13.4998 8C13.501 9.34637 13.0061 10.646 12.1098 11.6506C11.5521 10.8425 10.768 10.2174 9.85602 9.85375C10.3459 9.4679 10.7034 8.93899 10.8787 8.34056C11.0541 7.74213 11.0386 7.10393 10.8344 6.51472C10.6302 5.9255 10.2475 5.41455 9.73948 5.05293C9.23145 4.69131 8.62336 4.49699 7.99977 4.49699C7.37618 4.49699 6.76809 4.69131 6.26006 5.05293C5.75203 5.41455 5.36932 5.9255 5.16514 6.51472C4.96096 7.10393 4.94547 7.74213 5.12082 8.34056C5.29616 8.93899 5.65364 9.4679 6.14352 9.85375C5.23153 10.2174 4.44742 10.8425 3.88977 11.6506C3.18647 10.8581 2.72707 9.8793 2.5668 8.8319C2.40653 7.7845 2.55222 6.71311 2.98636 5.74654C3.42049 4.77997 4.12458 3.95938 5.01397 3.38344C5.90336 2.8075 6.94019 2.50072 7.99977 2.5C8.30719 2.49995 8.61408 2.52546 8.91727 2.57625C9.04747 2.59679 9.18051 2.5651 9.28745 2.48806C9.3944 2.41102 9.4666 2.29486 9.48835 2.16486C9.5101 2.03487 9.47963 1.90154 9.40359 1.79388C9.32754 1.68623 9.21206 1.61295 9.08227 1.59C7.72442 1.36157 6.32911 1.57058 5.09779 2.18686C3.86648 2.80313 2.86287 3.79478 2.23189 5.01862C1.6009 6.24247 1.37518 7.63517 1.58732 8.99566C1.79946 10.3562 2.43848 11.614 3.41211 12.5877C4.38575 13.5613 5.64362 14.2003 7.00411 14.4125C8.3646 14.6246 9.75731 14.3989 10.9811 13.7679C12.205 13.1369 13.1966 12.1333 13.8129 10.902C14.4292 9.67066 14.6382 8.27535 14.4098 6.9175C14.3879 6.78672 14.3149 6.66999 14.207 6.59298C14.099 6.51597 13.9649 6.485 13.8341 6.50688ZM5.99977 7.5C5.99977 7.10444 6.11707 6.71776 6.33683 6.38886C6.5566 6.05996 6.86895 5.80362 7.23441 5.65224C7.59986 5.50087 8.00199 5.46126 8.38995 5.53843C8.77792 5.6156 9.13428 5.80608 9.41399 6.08579C9.69369 6.36549 9.88417 6.72186 9.96134 7.10982C10.0385 7.49778 9.99891 7.89991 9.84753 8.26537C9.69616 8.63082 9.43981 8.94318 9.11091 9.16294C8.78201 9.3827 8.39534 9.5 7.99977 9.5C7.46934 9.5 6.96063 9.28929 6.58556 8.91421C6.21049 8.53914 5.99977 8.03043 5.99977 7.5ZM4.62977 12.3438C4.99148 11.7781 5.48978 11.3125 6.07872 10.99C6.66767 10.6676 7.32832 10.4985 7.99977 10.4985C8.67123 10.4985 9.33187 10.6676 9.92082 10.99C10.5098 11.3125 11.0081 11.7781 11.3698 12.3438C10.4062 13.0931 9.22041 13.5 7.99977 13.5C6.77913 13.5 5.59331 13.0931 4.62977 12.3438Z" fill="currentColor"/>
</svg>
