<svg width="16" height="16" viewBox="0 0 16 16" xmlns="http://www.w3.org/2000/svg">
<path d="M12.3537 1.14597L14.3537 3.14597C14.4002 3.19241 14.4371 3.24755 14.4623 3.30825C14.4874 3.36895 14.5004 3.43401 14.5004 3.49972C14.5004 3.56543 14.4874 3.63049 14.4623 3.69119C14.4371 3.75189 14.4002 3.80703 14.3537 3.85347L12.3537 5.85347C12.2599 5.94729 12.1327 6 12 6C11.8673 6 11.7401 5.94729 11.6462 5.85347C11.5524 5.75965 11.4997 5.6324 11.4997 5.49972C11.4997 5.36704 11.5524 5.23979 11.6462 5.14597L12.7931 3.99972L9.20687 3.99972L5.70687 7.49972L9.20687 10.9997L12.7931 10.9997L11.6462 9.85347C11.5524 9.75965 11.4997 9.6324 11.4997 9.49972C11.4997 9.36704 11.5524 9.23979 11.6462 9.14597C11.7401 9.05215 11.8673 8.99944 12 8.99944C12.1327 8.99944 12.2599 9.05215 12.3538 9.14597L14.3538 11.146C14.4002 11.1924 14.4371 11.2476 14.4623 11.3083C14.4874 11.369 14.5004 11.434 14.5004 11.4997C14.5004 11.5654 14.4874 11.6305 14.4623 11.6912C14.4371 11.7519 14.4002 11.807 14.3538 11.8535L12.3538 13.8535C12.3073 13.8999 12.2521 13.9368 12.1914 13.9619C12.1308 13.9871 12.0657 14 12 14C11.9343 14 11.8692 13.9871 11.8086 13.9619C11.7479 13.9368 11.6927 13.8999 11.6462 13.8535C11.5524 13.7597 11.4997 13.6324 11.4997 13.4997C11.4997 13.434 11.5127 13.369 11.5378 13.3083C11.5629 13.2476 11.5998 13.1924 11.6462 13.146L12.7931 11.9997L9 11.9997C8.93432 11.9998 8.86927 11.9869 8.80857 11.9618C8.74788 11.9367 8.69272 11.8999 8.64625 11.8535L4.79312 7.99972L2 7.99972C1.86739 7.99972 1.74021 7.94704 1.64645 7.85328C1.55268 7.75951 1.5 7.63233 1.5 7.49972C1.5 7.36711 1.55268 7.23994 1.64645 7.14617C1.74021 7.0524 1.86739 6.99972 2 6.99972L4.79312 6.99972L8.64625 3.14597C8.69272 3.09955 8.74788 3.06275 8.80857 3.03765C8.86927 3.01256 8.93432 2.99967 9 2.99972L12.7931 2.99972L11.6462 1.85347C11.5524 1.75965 11.4997 1.6324 11.4997 1.49972C11.4997 1.36704 11.5524 1.23979 11.6462 1.14597C11.7401 1.05215 11.8673 0.999443 12 0.999443C12.1327 0.999443 12.2599 1.05215 12.3537 1.14597Z" fill="currentColor"/>
</svg>
