<svg width="16" height="16" viewBox="0 0 16 16" xmlns="http://www.w3.org/2000/svg">
<path d="M5.5 6.5H2.5C2.36739 6.5 2.24021 6.44732 2.14645 6.35355C2.05268 6.25979 2 6.13261 2 6V3C2 2.86739 2.05268 2.74021 2.14645 2.64645C2.24021 2.55268 2.36739 2.5 2.5 2.5C2.63261 2.5 2.75979 2.55268 2.85355 2.64645C2.94732 2.74021 3 2.86739 3 3V4.49062C3.96688 3.4 5.66313 2 8 2C10.6763 2 12.2863 3.57938 12.3538 3.64625C12.4477 3.7399 12.5007 3.86706 12.5009 3.99974C12.5011 4.13242 12.4487 4.25976 12.355 4.35375C12.2613 4.44774 12.1342 4.50067 12.0015 4.5009C11.8688 4.50114 11.7415 4.44865 11.6475 4.355C11.6306 4.33812 10.245 3 8 3C5.8125 3 4.23562 4.54063 3.465 5.5H5.5C5.63261 5.5 5.75979 5.55268 5.85355 5.64645C5.94732 5.74021 6 5.86739 6 6C6 6.13261 5.94732 6.25979 5.85355 6.35355C5.75979 6.44732 5.63261 6.5 5.5 6.5ZM13.5 9.5H10.5C10.3674 9.5 10.2402 9.55268 10.1464 9.64645C10.0527 9.74021 10 9.86739 10 10C10 10.1326 10.0527 10.2598 10.1464 10.3536C10.2402 10.4473 10.3674 10.5 10.5 10.5H12.535C11.7644 11.4594 10.1875 13 8 13C5.755 13 4.36937 11.6619 4.3525 11.645C4.25851 11.5513 4.13117 11.4989 3.99849 11.4991C3.86581 11.4993 3.73865 11.5523 3.645 11.6462C3.55135 11.7402 3.49886 11.8676 3.4991 12.0003C3.49933 12.1329 3.55226 12.2601 3.64625 12.3538C3.71375 12.4206 5.32375 14 8 14C10.3369 14 12.0331 12.6 13 11.5094V13C13 13.1326 13.0527 13.2598 13.1464 13.3536C13.2402 13.4473 13.3674 13.5 13.5 13.5C13.6326 13.5 13.7598 13.4473 13.8536 13.3536C13.9473 13.2598 14 13.1326 14 13V10C14 9.86739 13.9473 9.74021 13.8536 9.64645C13.7598 9.55268 13.6326 9.5 13.5 9.5Z" fill="currentColor"/>
</svg>
