<svg width="16" height="16" viewBox="0 0 16 16" xmlns="http://www.w3.org/2000/svg">
<path d="M10 2.36842V1M10 2.36842V3.73684M10 2.36842H7M2 6.47368V12.6316C2 12.9945 2.14048 13.3426 2.39052 13.5992C2.64057 13.8558 2.97971 14 3.33333 14H12.6667C13.0203 14 13.3594 13.8558 13.6095 13.5992C13.8595 13.3426 14 12.9945 14 12.6316V6.47368M2 6.47368H14M2 6.47368V3.73684C2 3.37391 2.14048 3.02585 2.39052 2.76922C2.64057 2.51259 2.97971 2.36842 3.33333 2.36842H4.66667M14 6.47368V3.73684C14 3.37391 13.8595 3.02585 13.6095 2.76922C13.3594 2.51259 13.0203 2.36842 12.6667 2.36842H12.3333M4.66667 1V3.73684" stroke="currentColor" stroke-linecap="round" stroke-linejoin="round" fill="none"/>
</svg>
