<svg width="16" height="16" viewBox="0 0 16 16" xmlns="http://www.w3.org/2000/svg">
<path d="M6.85403 10.1466C6.90052 10.1931 6.9374 10.2482 6.96256 10.3089C6.98772 10.3696 7.00067 10.4347 7.00067 10.5004C7.00067 10.5661 6.98772 10.6312 6.96256 10.6919C6.9374 10.7526 6.90052 10.8077 6.85403 10.8541L4.85403 12.8541C4.80759 12.9006 4.75245 12.9375 4.69175 12.9627C4.63105 12.9878 4.56599 13.0008 4.50028 13.0008C4.43457 13.0008 4.36951 12.9878 4.30881 12.9627C4.24811 12.9375 4.19296 12.9006 4.14653 12.8541L2.14653 10.8541C2.10007 10.8077 2.06322 10.7525 2.03808 10.6918C2.01294 10.6311 2 10.5661 2 10.5004C2 10.4347 2.01294 10.3696 2.03808 10.3089C2.06322 10.2482 2.10007 10.1931 2.14653 10.1466C2.24035 10.0528 2.3676 10.0001 2.50028 10.0001C2.56598 10.0001 2.63103 10.0131 2.69173 10.0382C2.75242 10.0633 2.80757 10.1002 2.85403 10.1466L4.00028 11.2935V2.50039C4.00028 2.36779 4.05296 2.24061 4.14672 2.14684C4.24049 2.05307 4.36767 2.00039 4.50028 2.00039C4.63289 2.00039 4.76006 2.05307 4.85383 2.14684C4.9476 2.24061 5.00028 2.36779 5.00028 2.50039V11.2935L6.14653 10.1466C6.19296 10.1002 6.24811 10.0633 6.30881 10.0381C6.36951 10.013 6.43457 10 6.50028 10C6.56599 10 6.63105 10.013 6.69175 10.0381C6.75245 10.0633 6.80759 10.1002 6.85403 10.1466ZM12.854 4.14664L10.854 2.14664C10.8076 2.10016 10.7524 2.06328 10.6917 2.03811C10.631 2.01295 10.566 2 10.5003 2C10.4346 2 10.3695 2.01295 10.3088 2.03811C10.2481 2.06328 10.193 2.10016 10.1465 2.14664L8.14653 4.14664C8.05271 4.24046 8 4.36771 8 4.50039C8 4.63308 8.05271 4.76032 8.14653 4.85414C8.24035 4.94796 8.3676 5.00067 8.50028 5.00067C8.63296 5.00067 8.76021 4.94796 8.85403 4.85414L10.0003 3.70727V12.5004C10.0003 12.633 10.053 12.7602 10.1467 12.8539C10.2405 12.9477 10.3677 13.0004 10.5003 13.0004C10.6329 13.0004 10.7601 12.9477 10.8538 12.8539C10.9476 12.7602 11.0003 12.633 11.0003 12.5004V3.70727L12.1465 4.85414C12.2403 4.94796 12.3676 5.00067 12.5003 5.00067C12.633 5.00067 12.7602 4.94796 12.854 4.85414C12.9478 4.76032 13.0006 4.63308 13.0006 4.50039C13.0006 4.36771 12.9478 4.24046 12.854 4.14664Z" fill="currentColor"/>
</svg>
