<svg width="18" height="18" viewBox="0 0 18 18" xmlns="http://www.w3.org/2000/svg">
<path d="M2.25 3.375V7.875C2.25 7.875 2.25 10.125 7.5 10.125C7.944 10.125 8.35125 10.1092 8.72325 10.08M12.75 3.375V7.875" stroke="currentColor" stroke-linecap="round" stroke-linejoin="round" fill="none"/>
<path d="M7.5 14.625C2.25 14.625 2.25 12.375 2.25 12.375V7.875M16.2495 12.1252C15.786 10.9477 14.7255 10.125 13.4925 10.125C12.174 10.125 11.0535 11.0662 10.6477 12.375M7.5 1.125C12.75 1.125 12.75 3.375 12.75 3.375C12.75 3.375 12.75 5.625 7.5 5.625C2.25 5.625 2.25 3.375 2.25 3.375C2.25 3.375 2.25 1.125 7.5 1.125Z" stroke="currentColor" stroke-linecap="round" stroke-linejoin="round" fill="none"/>
<path d="M14.9958 12.1255H16.249C16.3878 12.1255 16.4995 12.013 16.4995 11.875V10.459M10.75 14.125C11.2135 15.3025 12.274 16.1252 13.507 16.1252C14.8255 16.1252 15.946 15.184 16.3517 13.8752" stroke="currentColor" stroke-linecap="round" stroke-linejoin="round" fill="none"/>
<path d="M12.0033 14.125H10.75C10.6836 14.125 10.6199 14.1514 10.5729 14.1984C10.5259 14.2453 10.4995 14.3091 10.4995 14.3755V15.7915" stroke="currentColor" stroke-linecap="round" stroke-linejoin="round" fill="none"/>
</svg>
