<svg width="65" height="58" viewBox="0 0 65 58" fill="none" xmlns="http://www.w3.org/2000/svg">
<path d="M0 29C0 22.58 0 19.3701 0.65428 16.7265C2.61165 8.81809 8.71306 2.64313 16.5273 0.662167C19.1393 0 22.3111 0 28.6546 0H36.3454C42.6889 0 45.8607 0 48.4727 0.662167C56.2869 2.64313 62.3884 8.81809 64.3457 16.7265C65 19.3701 65 22.58 65 29C65 35.42 65 38.63 64.3457 41.2735C62.3884 49.1819 56.2869 55.3569 48.4727 57.3378C45.8607 58 42.6889 58 36.3454 58H28.6546C22.3111 58 19.1393 58 16.5273 57.3378C8.71306 55.3569 2.61165 49.1819 0.65428 41.2735C0 38.63 0 35.42 0 29Z" fill="#970FFF"/>
<path d="M5.97363 30.6108C6.89533 33.2174 9.14204 35.5083 11.8307 37.2549C15.3797 39.5603 19.8098 40.9943 23.3376 40.9943H32.5126H41.6876C45.2154 40.9943 49.6456 39.5603 53.1945 37.2549C55.8832 35.5083 58.1299 33.2174 59.0516 30.6108L42.8656 30.6424C37.9087 30.6424 33.7381 34.0478 32.5126 38.6731C31.2872 34.0478 27.1165 30.6424 22.1597 30.6424L5.97363 30.6108Z" fill="white"/>
<path d="M5.97363 43.8574C6.89533 46.464 9.14204 48.7549 11.8307 50.5014C15.3797 52.8069 19.8098 54.2409 23.3376 54.2409H32.5126H41.6876C45.2154 54.2409 49.6456 52.8069 53.1945 50.5014C55.8832 48.7549 58.1299 46.464 59.0516 43.8574L42.8656 43.889C37.9087 43.889 33.7381 47.2943 32.5126 51.9197C31.2872 47.2943 27.1165 43.889 22.1597 43.889L5.97363 43.8574Z" fill="white"/>
<path d="M5.97363 14.499C6.89533 11.8924 9.14204 9.60159 11.8307 7.855C15.3797 5.54958 19.8098 4.11552 23.3376 4.11552H32.5126H41.6876C45.2154 4.11552 49.6456 5.54958 53.1945 7.855C55.8832 9.60159 58.1299 11.8924 59.0516 14.499L42.8656 14.4674C37.9087 14.4674 33.7381 11.0621 32.5126 6.43676C31.2872 11.0621 27.1165 14.4674 22.1597 14.4674L5.97363 14.499Z" fill="white"/>
<path d="M5.97363 27.7461C6.89533 25.1395 9.14204 22.8487 11.8307 21.1021C15.3797 18.7967 19.8098 17.3626 23.3376 17.3626H32.5126H41.6876C45.2154 17.3626 49.6456 18.7967 53.1945 21.1021C55.8832 22.8487 58.1299 25.1395 59.0516 27.7461L42.8656 27.7145C37.9087 27.7145 33.7381 24.3092 32.5126 19.6838C31.2872 24.3092 27.1165 27.7145 22.1597 27.7145L5.97363 27.7461Z" fill="white"/>
</svg>
