<svg width="395" height="155" viewBox="0 0 395 155" fill="none" xmlns="http://www.w3.org/2000/svg">
<rect width="395" height="155" rx="61.6606" fill="#111010"/>
<rect x="12.3691" y="12.2074" width="147.843" height="130.675" rx="49.781" fill="#1D1C1C"/>
<path d="M25.9395 81.1757C28.0359 87.0484 33.146 92.2097 39.2614 96.1448C47.3335 101.339 57.4099 104.57 65.434 104.57H86.3025H107.171C115.195 104.57 125.272 101.339 133.344 96.1448C139.459 92.2097 144.569 87.0484 146.666 81.1757L109.85 81.2469C98.576 81.2469 89.0898 88.9191 86.3025 99.3401C83.5153 88.9191 74.0291 81.2469 62.7547 81.2469L25.9395 81.1757Z" fill="#4B4B4B"/>
<path d="M25.9395 111.023C28.0359 116.895 33.146 122.057 39.2614 125.992C47.3335 131.186 57.4099 134.417 65.434 134.417H86.3025H107.171C115.195 134.417 125.272 131.186 133.344 125.992C139.459 122.057 144.569 116.895 146.666 111.023L109.85 111.094C98.576 111.094 89.0898 118.766 86.3025 129.187C83.5153 118.766 74.0291 111.094 62.7547 111.094L25.9395 111.023Z" fill="#4B4B4B"/>
<path d="M25.9395 44.874C28.0359 39.0013 33.146 33.84 39.2614 29.9049C47.3335 24.7108 57.4099 21.4798 65.434 21.4798H86.3025H107.171C115.195 21.4798 125.272 24.7108 133.344 29.9049C139.459 33.84 144.569 39.0013 146.666 44.874L109.85 44.8028C98.576 44.8028 89.0898 37.1306 86.3025 26.7096C83.5153 37.1306 74.0291 44.8028 62.7547 44.8028L25.9395 44.874Z" fill="#4B4B4B"/>
<path d="M25.9395 74.7209C28.0359 68.8482 33.146 63.6869 39.2614 59.7518C47.3335 54.5577 57.4099 51.3267 65.434 51.3267H86.3025H107.171C115.195 51.3267 125.272 54.5577 133.344 59.7518C139.459 63.6869 144.569 68.8482 146.666 74.7209L109.85 74.6497C98.576 74.6497 89.0898 66.9775 86.3025 56.5565C83.5153 66.9775 74.0291 74.6497 62.7547 74.6497L25.9395 74.7209Z" fill="#4B4B4B"/>
<path d="M175.741 70.4974H194.86C206.503 70.4974 215.633 68.9654 215.633 58.8545C215.633 52.1139 211.589 48.3759 204.358 47.7018C207.606 47.089 212.447 45.0056 212.447 37.7135C212.447 29.3796 206.503 27.2961 194.431 27.2961H175.741V70.4974ZM188.157 60.9992C187.161 60.9992 186.354 60.1923 186.354 59.1969V52.359H195.473C200.988 52.359 204.358 52.1139 204.358 56.6485C204.358 61.1831 201.172 60.9992 195.473 60.9992H188.157ZM186.354 43.6575V38.0451C186.354 37.0497 187.161 36.2428 188.157 36.2428H195.534C199.211 36.2428 201.662 36.1815 201.662 39.9808C201.662 43.9026 198.966 43.6575 195.534 43.6575H186.354Z" fill="#383838"/>
<path d="M263.731 48.8661C263.731 61.6733 272.972 71.3553 287.066 71.3553C301.099 71.3553 310.279 61.6733 310.279 48.8661C310.279 36.1202 301.099 26.4382 287.066 26.4382C272.972 26.4382 263.731 36.1202 263.731 48.8661ZM275.252 48.8661C275.252 41.0838 279.59 37.1499 287.066 37.1499C294.481 37.1499 298.82 41.0225 298.82 48.8661C298.82 56.7097 294.542 60.6436 287.066 60.6436C279.59 60.6436 275.252 56.7097 275.252 48.8661Z" fill="#383838"/>
<path fill-rule="evenodd" clip-rule="evenodd" d="M316.622 27.6398H353.369V37.2521H337.039L352.605 56.0815C354.045 53.9838 355.259 51.3454 356.124 48.0476L365.422 50.4873C363.998 55.9141 361.732 60.2828 358.889 63.6838L362.319 67.8329L354.911 73.9573L351.489 69.8187C350.064 70.6077 348.578 71.2536 347.049 71.7619C339.052 74.4212 330.428 73.14 323.988 69.9945C320.749 68.4125 317.811 66.2393 315.736 63.5611C313.646 60.865 312.259 57.3956 312.846 53.5658C313.434 49.7267 315.857 46.5019 319.39 43.9906C321.437 42.5356 323.951 41.245 326.941 40.1226L316.622 27.6398ZM333.508 48.067C329.465 49.247 326.724 50.5709 324.959 51.8256C322.848 53.326 322.428 54.492 322.347 55.0225C322.264 55.5624 322.379 56.4415 323.333 57.6727C324.301 58.9218 325.949 60.2547 328.207 61.3573C332.76 63.5812 338.774 64.3839 344.016 62.6407C344.41 62.5099 344.802 62.3638 345.192 62.2011L333.508 48.067Z" fill="#383838"/>
<path d="M229.953 125.167H249.072C260.715 125.167 269.845 123.635 269.845 113.524C269.845 106.784 265.801 103.046 258.57 102.372C261.818 101.759 266.659 99.6755 266.659 92.3834C266.659 84.0495 260.715 81.966 248.643 81.966H229.953V125.167ZM242.369 115.669C241.373 115.669 240.566 114.862 240.566 113.867V107.029H249.685C255.2 107.029 258.57 106.784 258.57 111.318C258.57 115.853 255.384 115.669 249.685 115.669H242.369ZM240.566 98.3274V92.715C240.566 91.7196 241.373 90.9127 242.369 90.9127H249.746C253.423 90.9127 255.874 90.8514 255.874 94.6507C255.874 98.5725 253.178 98.3274 249.746 98.3274H240.566Z" fill="#383838"/>
<path d="M275.617 125.167H286.231V110.522H301.635C302.631 110.522 303.438 111.329 303.438 112.324V125.167H314.529V112.054C314.529 108.071 312.446 104.333 306.502 104.333H303.768C309.443 103.953 314.039 100.35 314.039 93.4251C314.039 83.927 304.479 81.966 294.675 81.966H275.617V125.167ZM286.231 100.84V91.7093H294.675C299.393 91.7093 302.947 91.8319 302.947 96.3052C302.947 100.656 299.638 100.84 294.675 100.84H286.231Z" fill="#383838"/>
<path d="M319.145 103.536C319.145 116.343 328.386 126.025 342.48 126.025C356.512 126.025 365.692 116.343 365.692 103.536C365.692 90.7901 356.512 81.1082 342.48 81.1082C328.386 81.1082 319.145 90.7901 319.145 103.536ZM330.665 103.536C330.665 95.7537 335.004 91.8198 342.48 91.8198C349.894 91.8198 354.233 95.6924 354.233 103.536C354.233 111.38 349.956 115.313 342.48 115.313C335.004 115.313 330.665 111.38 330.665 103.536Z" fill="#383838"/>
<path fill-rule="evenodd" clip-rule="evenodd" d="M176.644 82.3097H213.391V91.922H197.062L212.627 110.751C214.067 108.654 215.281 106.015 216.146 102.718L225.444 105.157C224.02 110.584 221.755 114.953 218.911 118.354L222.341 122.503L214.933 128.627L211.512 124.489C210.086 125.278 208.6 125.923 207.072 126.432C199.074 129.091 190.45 127.81 184.01 124.664C180.771 123.082 177.833 120.909 175.758 118.231C173.668 115.535 172.281 112.066 172.868 108.236C173.457 104.397 175.879 101.172 179.413 98.6605C181.46 97.2055 183.974 95.9149 186.963 94.7925L176.644 82.3097ZM193.53 102.737C189.487 103.917 186.746 105.241 184.981 106.495C182.87 107.996 182.451 109.162 182.369 109.692C182.286 110.232 182.401 111.111 183.355 112.343C184.323 113.592 185.971 114.925 188.229 116.027C192.782 118.251 198.796 119.054 204.039 117.311C204.432 117.18 204.824 117.034 205.214 116.871L193.53 102.737Z" fill="#383838"/>
<path d="M220.794 70.4675H231.407V55.8219H246.812C247.807 55.8219 248.614 56.6289 248.614 57.6242V70.4675H259.706V57.3539C259.706 53.3708 257.622 49.6328 251.678 49.6328H248.945C254.62 49.2531 259.215 45.6497 259.215 38.7253C259.215 29.2271 249.656 27.2662 239.851 27.2662H220.794V70.4675ZM231.407 46.14V37.0095H239.851C244.57 37.0095 248.124 37.132 248.124 41.6054C248.124 45.9561 244.815 46.14 239.851 46.14H231.407Z" fill="#383838"/>
<path d="M175.741 70.4974H194.86C206.503 70.4974 215.633 68.9654 215.633 58.8545C215.633 52.1139 211.589 48.3759 204.358 47.7018C207.606 47.089 212.447 45.0056 212.447 37.7135C212.447 29.3796 206.503 27.2961 194.431 27.2961H175.741V70.4974ZM188.157 60.9992C187.161 60.9992 186.354 60.1923 186.354 59.1969V52.359H195.473C200.988 52.359 204.358 52.1139 204.358 56.6485C204.358 61.1831 201.172 60.9992 195.473 60.9992H188.157ZM186.354 43.6575V38.0451C186.354 37.0497 187.161 36.2428 188.157 36.2428H195.534C199.211 36.2428 201.662 36.1815 201.662 39.9808C201.662 43.9026 198.966 43.6575 195.534 43.6575H186.354Z" fill="#4B4B4B"/>
<path d="M263.731 48.8661C263.731 61.6733 272.972 71.3553 287.066 71.3553C301.099 71.3553 310.279 61.6733 310.279 48.8661C310.279 36.1202 301.099 26.4382 287.066 26.4382C272.972 26.4382 263.731 36.1202 263.731 48.8661ZM275.252 48.8661C275.252 41.0838 279.59 37.1499 287.066 37.1499C294.481 37.1499 298.82 41.0225 298.82 48.8661C298.82 56.7097 294.542 60.6436 287.066 60.6436C279.59 60.6436 275.252 56.7097 275.252 48.8661Z" fill="#4B4B4B"/>
<path fill-rule="evenodd" clip-rule="evenodd" d="M316.622 27.6398H353.369V37.2521H337.039L352.605 56.0815C354.045 53.9838 355.259 51.3454 356.124 48.0476L365.422 50.4873C363.998 55.9141 361.732 60.2828 358.889 63.6838L362.319 67.8329L354.911 73.9573L351.489 69.8187C350.064 70.6077 348.578 71.2536 347.049 71.7619C339.052 74.4212 330.428 73.14 323.988 69.9945C320.749 68.4125 317.811 66.2393 315.736 63.5611C313.646 60.865 312.259 57.3956 312.846 53.5658C313.434 49.7267 315.857 46.5019 319.39 43.9906C321.437 42.5356 323.951 41.245 326.941 40.1226L316.622 27.6398ZM333.508 48.067C329.465 49.247 326.724 50.5709 324.959 51.8256C322.848 53.326 322.428 54.492 322.347 55.0225C322.264 55.5624 322.379 56.4415 323.333 57.6727C324.301 58.9218 325.949 60.2547 328.207 61.3573C332.76 63.5812 338.774 64.3839 344.016 62.6407C344.41 62.5099 344.802 62.3638 345.192 62.2011L333.508 48.067Z" fill="#4B4B4B"/>
<path d="M229.953 125.167H249.072C260.715 125.167 269.845 123.635 269.845 113.524C269.845 106.784 265.801 103.046 258.57 102.372C261.818 101.759 266.659 99.6755 266.659 92.3834C266.659 84.0495 260.715 81.966 248.643 81.966H229.953V125.167ZM242.369 115.669C241.373 115.669 240.566 114.862 240.566 113.867V107.029H249.685C255.2 107.029 258.57 106.784 258.57 111.318C258.57 115.853 255.384 115.669 249.685 115.669H242.369ZM240.566 98.3274V92.715C240.566 91.7196 241.373 90.9127 242.369 90.9127H249.746C253.423 90.9127 255.874 90.8514 255.874 94.6507C255.874 98.5725 253.178 98.3274 249.746 98.3274H240.566Z" fill="#4B4B4B"/>
<path d="M275.617 125.167H286.231V110.522H301.635C302.631 110.522 303.438 111.329 303.438 112.324V125.167H314.529V112.054C314.529 108.071 312.446 104.333 306.502 104.333H303.768C309.443 103.953 314.039 100.35 314.039 93.4251C314.039 83.927 304.479 81.966 294.675 81.966H275.617V125.167ZM286.231 100.84V91.7093H294.675C299.393 91.7093 302.947 91.8319 302.947 96.3052C302.947 100.656 299.638 100.84 294.675 100.84H286.231Z" fill="#4B4B4B"/>
<path d="M319.145 103.536C319.145 116.343 328.386 126.025 342.48 126.025C356.512 126.025 365.692 116.343 365.692 103.536C365.692 90.7901 356.512 81.1082 342.48 81.1082C328.386 81.1082 319.145 90.7901 319.145 103.536ZM330.665 103.536C330.665 95.7537 335.004 91.8198 342.48 91.8198C349.894 91.8198 354.233 95.6924 354.233 103.536C354.233 111.38 349.956 115.313 342.48 115.313C335.004 115.313 330.665 111.38 330.665 103.536Z" fill="#4B4B4B"/>
<path fill-rule="evenodd" clip-rule="evenodd" d="M176.644 82.3097H213.391V91.922H197.062L212.627 110.751C214.067 108.654 215.281 106.015 216.146 102.718L225.444 105.157C224.02 110.584 221.755 114.953 218.911 118.354L222.341 122.503L214.933 128.627L211.512 124.489C210.086 125.278 208.6 125.923 207.072 126.432C199.074 129.091 190.45 127.81 184.01 124.664C180.771 123.082 177.833 120.909 175.758 118.231C173.668 115.535 172.281 112.066 172.868 108.236C173.457 104.397 175.879 101.172 179.413 98.6605C181.46 97.2055 183.974 95.9149 186.963 94.7925L176.644 82.3097ZM193.53 102.737C189.487 103.917 186.746 105.241 184.981 106.495C182.87 107.996 182.451 109.162 182.369 109.692C182.286 110.232 182.401 111.111 183.355 112.343C184.323 113.592 185.971 114.925 188.229 116.027C192.782 118.251 198.796 119.054 204.039 117.311C204.432 117.18 204.824 117.034 205.214 116.871L193.53 102.737Z" fill="#4B4B4B"/>
<path d="M220.794 70.4675H231.407V55.8219H246.812C247.807 55.8219 248.614 56.6289 248.614 57.6242V70.4675H259.706V57.3539C259.706 53.3708 257.622 49.6328 251.678 49.6328H248.945C254.62 49.2531 259.215 45.6497 259.215 38.7253C259.215 29.2271 249.656 27.2662 239.851 27.2662H220.794V70.4675ZM231.407 46.14V37.0095H239.851C244.57 37.0095 248.124 37.132 248.124 41.6054C248.124 45.9561 244.815 46.14 239.851 46.14H231.407Z" fill="#4B4B4B"/>
</svg>
