<svg width="419" height="223" viewBox="0 0 419 223" fill="none" xmlns="http://www.w3.org/2000/svg">
<path d="M6.53348 96.1473H48.0489C73.3307 96.1473 93.157 92.8042 93.157 70.7398C93.157 56.0302 84.3749 47.8731 68.6735 46.4021C75.7258 45.0649 86.2377 40.5183 86.2377 24.6051C86.2377 6.41874 73.3307 1.87213 47.1175 1.87213H6.53348V96.1473ZM33.4929 75.4201C31.3315 75.4201 29.5793 73.6592 29.5793 71.4871V56.5651H49.3795C61.3551 56.5651 68.6735 56.0302 68.6735 65.9257C68.6735 75.8213 61.7543 75.4201 49.3795 75.4201H33.4929ZM29.5793 37.5763V25.3288C29.5793 23.1567 31.3315 21.3958 33.4929 21.3958H49.5126C57.4963 21.3958 62.8188 21.2621 62.8188 29.5529C62.8188 38.1112 56.9641 37.5763 49.5126 37.5763H29.5793Z" fill="white"/>
<path d="M197.598 48.9428C197.598 76.8911 217.665 98.0194 248.269 98.0194C278.74 98.0194 298.673 76.8911 298.673 48.9428C298.673 21.1283 278.74 0 248.269 0C217.665 0 197.598 21.1283 197.598 48.9428ZM222.614 48.9428C222.614 31.9599 232.035 23.3754 248.269 23.3754C264.369 23.3754 273.791 31.8262 273.791 48.9428C273.791 66.0595 264.502 74.644 248.269 74.644C232.035 74.644 222.614 66.0595 222.614 48.9428Z" fill="white"/>
<path fill-rule="evenodd" clip-rule="evenodd" d="M312.447 2.62203H392.241V23.5983H356.782L390.582 64.6884C393.708 60.1108 396.345 54.3532 398.224 47.1566L418.413 52.4806C415.321 64.3231 410.402 73.8567 404.228 81.2784L411.676 90.3327L395.589 103.698L388.16 94.6661C385.064 96.3881 381.838 97.7974 378.519 98.9068C361.153 104.71 342.427 101.914 328.442 95.0498C321.409 91.5975 315.03 86.8552 310.522 81.0107C305.985 75.1272 302.972 67.5561 304.247 59.1986C305.526 50.8208 310.786 43.7835 318.459 38.3033C322.904 35.1282 328.363 32.3119 334.854 29.8624L312.447 2.62203ZM349.115 47.1991C340.335 49.7739 334.384 52.663 330.55 55.401C325.966 58.6754 325.055 61.2198 324.879 62.3776C324.699 63.5557 324.948 65.4741 327.02 68.1609C329.122 70.8866 332.7 73.7953 337.602 76.2016C347.489 81.0545 360.549 82.8063 371.933 79.0021C372.786 78.7168 373.638 78.3979 374.486 78.0428L349.115 47.1991Z" fill="white"/>
<path d="M124.251 215.45H165.767C191.048 215.45 210.875 212.107 210.875 190.042C210.875 175.333 202.092 167.175 186.391 165.705C193.443 164.367 203.955 159.821 203.955 143.908C203.955 125.721 191.048 121.175 164.835 121.175H124.251V215.45ZM151.211 194.723C149.049 194.723 147.297 192.962 147.297 190.789V175.867H167.097C179.073 175.867 186.391 175.333 186.391 185.228C186.391 195.124 179.472 194.723 167.097 194.723H151.211ZM147.297 156.879V144.631C147.297 142.459 149.049 140.698 151.211 140.698H167.23C175.214 140.698 180.536 140.564 180.536 148.855C180.536 157.414 174.682 156.879 167.23 156.879H147.297Z" fill="white"/>
<path d="M223.408 215.45H246.454V183.49H279.905C282.066 183.49 283.818 185.251 283.818 187.423V215.45H307.903V186.833C307.903 178.141 303.379 169.984 290.472 169.984H284.536C296.859 169.155 306.838 161.292 306.838 146.181C306.838 125.454 286.081 121.175 264.791 121.175H223.408V215.45ZM246.454 162.361V142.437H264.791C275.036 142.437 282.754 142.704 282.754 152.466C282.754 161.96 275.569 162.361 264.791 162.361H246.454Z" fill="white"/>
<path d="M317.925 168.245C317.925 196.193 337.991 217.322 368.596 217.322C399.067 217.322 419 196.193 419 168.245C419 140.431 399.067 119.302 368.596 119.302C337.991 119.302 317.925 140.431 317.925 168.245ZM342.941 168.245C342.941 151.262 352.362 142.678 368.596 142.678C384.696 142.678 394.117 151.129 394.117 168.245C394.117 185.362 384.829 193.946 368.596 193.946C352.362 193.946 342.941 185.362 342.941 168.245Z" fill="white"/>
<path fill-rule="evenodd" clip-rule="evenodd" d="M8.49395 121.924H88.2878V142.901H52.8292L86.6286 183.991C89.755 179.413 92.3917 173.656 94.2707 166.459L114.46 171.783C111.368 183.626 106.449 193.159 100.275 200.581L107.723 209.635L91.6354 223L84.2064 213.969C81.1109 215.69 77.8851 217.1 74.5654 218.209C57.1998 224.012 38.4735 221.217 24.4889 214.352C17.4556 210.9 11.0765 206.158 6.56924 200.313C2.03191 194.43 -0.980878 186.859 0.294172 178.501C1.57232 170.123 6.83289 163.086 14.5054 157.606C18.9506 154.431 24.4094 151.614 30.901 149.165L8.49395 121.924ZM45.1616 166.501C36.3816 169.076 30.4306 171.965 26.5973 174.703C22.013 177.978 21.1022 180.522 20.9256 181.68C20.7459 182.858 20.9949 184.777 23.0669 187.463C25.169 190.189 28.7469 193.098 33.6493 195.504C43.536 200.357 56.5958 202.109 67.9794 198.305C68.8331 198.019 69.685 197.7 70.5326 197.345L45.1616 166.501Z" fill="white"/>
<path d="M104.362 96.082H127.408V64.122H160.859C163.021 64.122 164.773 65.8829 164.773 68.0551V96.082H188.857V67.4651C188.857 58.7731 184.333 50.616 171.426 50.616H165.49C177.813 49.7874 187.792 41.9239 187.792 26.8132C187.792 6.08599 167.035 1.80685 145.745 1.80685H104.362V96.082ZM127.408 42.9937V23.0689H145.745C155.991 23.0689 163.708 23.3363 163.708 33.0982C163.708 42.5925 156.523 42.9937 145.745 42.9937H127.408Z" fill="white"/>
</svg>
